<svg xmlns="http://www.w3.org/2000/svg" viewBox="0 0 32 32" fill="none">
  <!-- Capsule Shape -->
  <path d="M 10 8 H 22 C 26.4 8 30 11.6 30 16 C 30 20.4 26.4 24 22 24 H 10 C 5.6 24 2 20.4 2 16 C 2 11.6 5.6 8 10 8 Z" fill="#ff3b30" />
  
  <!-- Mirrored D (Left) -->
  <path d="M 15 11 H 12 C 9.5 11 8 12.5 8 14.5 V 17.5 C 8 19.5 9.5 21 12 21 H 15 Z M 13.5 13 V 19 H 12 C 10.9 19 10 18.1 10 17 V 15 C 10 13.9 10.9 13 12 13 Z" fill="#ffffff" />
  
  <!-- Normal D (Right) -->
  <path d="M 17 11 H 20 C 22.5 11 24 12.5 24 14.5 V 17.5 C 24 19.5 22.5 21 20 21 H 17 Z M 18.5 13 V 19 H 20 C 21.1 19 22 18.1 22 17 V 15 C 22 13.9 21.1 13 20 13 Z" fill="#ffffff" />
</svg>